<?xml version="1.0" encoding="UTF-8" standalone="no"?>
<svg width="175px" height="31px" viewBox="0 0 175 31" version="1.1" xmlns="http://www.w3.org/2000/svg" xmlns:xlink="http://www.w3.org/1999/xlink">
    <!-- Generator: Sketch 41.2 (35397) - http://www.bohemiancoding.com/sketch -->
    <title>Group</title>
    <desc>Created with Sketch.</desc>
    <defs></defs>
    <g id="Symbols" stroke="none" stroke-width="1" fill="none" fill-rule="evenodd">
        <g id="Navigation-v2" transform="translate(-200.000000, -50.000000)" fill="#842E2D">
            <g id="Navigation">
                <g id="Group" transform="translate(200.000000, 50.000000)">
                    <path d="M92.4101,9.0442 C90.7801,17.2042 89.2691,18.5342 87.1501,18.6222 C86.7101,18.6412 86.3321,18.5332 86.0191,18.3302 C85.8311,18.2082 85.6661,18.0512 85.5261,17.8662 C85.3841,17.6782 85.2751,17.4612 85.1881,17.2272 C84.7341,16.0022 84.9711,14.2652 85.1831,13.2352 C85.2721,12.8002 85.4581,12.0282 85.7801,11.2032 C86.1921,10.2522 86.7531,9.3232 87.5141,8.6532 C87.5251,8.6432 87.5361,8.6322 87.5471,8.6222 C87.5651,8.6072 87.5831,8.5922 87.6001,8.5772 C87.6601,8.5252 87.7231,8.4792 87.7851,8.4312 C87.9791,8.2852 88.1851,8.1582 88.4041,8.0482 C88.6501,7.9242 88.9121,7.8242 89.1921,7.7572 C90.1741,7.5192 91.1111,7.8472 91.7371,8.1952 C92.1171,8.4072 92.3831,8.6252 92.4751,8.7292 C92.4751,8.7292 92.4621,8.7872 92.4101,9.0442 L92.4101,9.0442 Z M93.4181,4.5612 L92.8581,6.4732 C92.6141,6.1332 92.0861,5.4982 91.6511,5.1622 C90.7501,4.4662 89.5371,4.0852 88.4731,4.0822 C88.3801,4.0832 88.2881,4.0862 88.1981,4.0932 C86.0111,4.2582 84.2531,5.0412 82.4971,6.6182 C79.8161,9.0232 79.1141,12.5682 78.9951,13.1442 C78.6201,14.9672 78.2301,18.3432 79.8401,20.4702 C80.3381,21.1282 80.9921,21.6382 81.7941,21.9742 C82.4921,22.2662 83.3031,22.4242 84.2221,22.4352 C87.6601,22.4792 89.2961,20.6102 90.1051,19.6652 L89.6891,22.0502 L95.4551,22.0502 L99.0591,4.5612 L93.4181,4.5612 Z" id="Fill-1"></path>
                    <path d="M16.1174,13.9606 L7.5064,13.9606 L14.2414,2.9326 L16.1174,13.9606 Z M13.5124,0.1196 L0.0004,22.0496 L2.6464,22.0496 L6.1704,16.2706 L16.5134,16.2706 L17.5644,22.0496 L20.2494,22.0496 L16.1744,0.1196 L13.5124,0.1196 Z" id="Fill-3"></path>
                    <polygon id="Fill-5" points="21.8747 0.1192 21.3747 2.4292 28.8377 2.4292 24.6057 22.0502 27.1447 22.0502 31.3867 2.4292 38.7407 2.4292 39.2427 0.1192"></polygon>
                    <polygon id="Fill-7" points="62.2785 0.0106 55.0465 0.0106 45.4935 9.9956 50.2775 22.0506 57.7375 22.0506 52.1775 9.9926"></polygon>
                    <polygon id="Fill-9" points="41.1332 -0.0001 36.3722 22.0399 42.5892 22.0399 47.3492 -0.0001"></polygon>
                    <path d="M114.5952,4.3593 C114.4502,4.3563 114.2932,4.3523 114.1222,4.3523 C112.4492,4.3523 110.0022,4.7163 108.0682,7.8573 L107.7582,8.3613 L108.4462,4.5013 L102.5042,4.5013 L98.9002,21.9903 L105.1442,21.9903 L106.6752,14.5663 C107.3292,11.3953 109.1742,9.7883 112.1612,9.7883 C112.4202,9.7883 113.2072,9.8063 113.4792,9.8123 L114.5952,4.3593 Z" id="Fill-11"></path>
                    <path d="M158.5983,22.2776 L155.2593,4.5606 L161.7913,4.5606 L162.6523,16.5796 L168.7333,4.5606 L175.0003,4.5606 C174.4533,5.5176 171.1423,11.2296 168.4923,15.6896 C164.9433,21.8126 160.8163,28.0846 158.0183,30.2886 L154.6903,26.8346 C156.3053,25.5596 157.8463,23.8756 158.5983,22.2776" id="Fill-13"></path>
                    <path d="M122.4626,7.0925 L122.9156,4.5615 L116.8026,4.5615 L113.1986,22.0505 L119.4436,22.0505 L121.5166,11.9965 C122.0156,9.5715 123.3226,8.2355 125.1946,8.2355 C125.9686,8.2355 126.5396,8.4545 126.8906,8.8845 C127.5756,9.7245 127.2796,11.1615 127.1026,12.0195 L125.0346,22.0505 L131.3136,22.0505 L133.5026,11.4355 C133.8206,9.8895 134.3536,7.3035 133.0286,5.6775 C132.2166,4.6815 130.7966,4.1755 128.8096,4.1755 C125.4746,4.1755 123.5676,5.7445 122.4626,7.0925" id="Fill-16"></path>
                    <path d="M65.1628,10.8054 C65.8768,8.3834 67.1848,7.1554 69.0488,7.1554 C69.8848,7.1554 70.5168,7.3954 70.9278,7.8674 C71.7028,8.7574 71.4928,10.2794 71.4128,10.8524 L71.3998,10.9494 L65.1208,10.9494 L65.1628,10.8054 Z M64.3438,14.5814 L76.5878,14.5814 C77.2488,11.3644 77.3318,9.7964 76.9208,8.3794 C76.1478,5.3844 73.8088,3.9304 69.7708,3.9304 C66.7488,3.9304 64.0408,4.8574 62.1748,6.5624 C60.4038,8.1794 59.1168,10.5764 58.6328,13.5974 C58.1708,16.4844 58.4718,18.6714 59.6908,20.1664 C60.9178,21.6734 63.0408,22.4354 66.0008,22.4354 C70.3918,22.4354 73.8328,20.7804 75.4548,17.8914 L70.8228,16.5784 C69.9018,18.2514 68.5098,18.9734 66.8808,18.9734 L66.7718,18.9724 C65.8258,18.9524 65.1228,18.6614 64.6848,18.1104 C63.8378,17.0484 64.1918,15.3214 64.3248,14.6714 L64.3438,14.5814 Z" id="Fill-18"></path>
                    <path d="M142.0056,10.8054 C142.7196,8.3834 144.0276,7.1554 145.8916,7.1554 C146.7276,7.1554 147.3596,7.3954 147.7706,7.8674 C148.5456,8.7574 148.3356,10.2794 148.2556,10.8524 L148.2426,10.9494 L141.9636,10.9494 L142.0056,10.8054 Z M141.1866,14.5814 L153.4306,14.5814 C154.0916,11.3644 154.1746,9.7964 153.7636,8.3794 C152.9906,5.3844 150.6516,3.9304 146.6136,3.9304 C143.5916,3.9304 140.8836,4.8574 139.0176,6.5624 C137.2466,8.1794 135.9596,10.5764 135.4756,13.5974 C135.0136,16.4844 135.3146,18.6714 136.5336,20.1664 C137.7606,21.6734 139.8836,22.4354 142.8436,22.4354 C147.2346,22.4354 150.6756,20.7804 152.2976,17.8914 L147.6656,16.5784 C146.7446,18.2514 145.3526,18.9734 143.7236,18.9734 L143.6146,18.9724 C142.6686,18.9524 141.9656,18.6614 141.5276,18.1104 C140.6796,17.0484 141.0346,15.3214 141.1676,14.6714 L141.1866,14.5814 Z" id="Fill-20"></path>
                </g>
            </g>
        </g>
    </g>
</svg>