<?xml version="1.0" encoding="utf-8"?>
<!-- Generator: Adobe Illustrator 17.1.0, SVG Export Plug-In . SVG Version: 6.00 Build 0)  -->
<!DOCTYPE svg PUBLIC "-//W3C//DTD SVG 1.1//EN" "http://www.w3.org/Graphics/SVG/1.1/DTD/svg11.dtd">
<svg version="1.1" id="Layer_1" xmlns="http://www.w3.org/2000/svg" xmlns:xlink="http://www.w3.org/1999/xlink" x="0px" y="0px"
	 viewBox="0 166.5 500 166.9" enable-background="new 0 166.5 500 166.9" xml:space="preserve">
<g>
	<path fill="#FFFFFF" d="M41,312.2h14.5v18.9H1v-18.9h14.7V185.5H0v-18.9h41"/>
	<path fill="#FFFFFF" d="M133.6,229.5h11.3c9,0,13.5,3.8,13.5,12.3v6c0,3.8-0.4,6.4-0.4,6.4h0.4c4.6-14.5,29.6-26.1,45.1-26.1
		c2.4,0,5.9,0.4,5.9,0.4v21c0,0-3.9-0.4-7.5-0.4c-20.5,0-42.5,21.8-42.5,40.9v22.1h14.5v18.9h-40.4L133.6,229.5L133.6,229.5z"/>
	<path fill="#FFFFFF" d="M223.4,312.2h14.7v-59.6c0-2.8-1.6-4.2-4.4-4.2h-11.4v-18.9h26.5c9,0,13.3,4.2,13.3,11.4v4.6
		c0,2.2-0.4,4.4-0.4,4.4h0.4c5.2-10.4,17.9-22.7,34.7-22.7c14.1,0,24.3,6.6,28.3,22.1h0.4c5.6-12,19.1-22.1,35.3-22.1
		c20.5,0,32.7,12,32.7,38.6v46.4h14.7v18.9h-40v-60.5c0-11.6-2.2-20.3-13.9-20.3c-17.3,0-25.9,17.3-25.9,36.1v25.9h14.7v18.9h-39.8
		v-60.6c0-11-1.8-20.3-13.7-20.3c-17.9,0-26.1,18.9-26.1,37.2v24.7H278v18.9h-54.6L223.4,312.2L223.4,312.2z"/>
	<path fill="#FFFFFF" d="M415.9,297.2h21.5v6c0,7,9.4,10.6,19.9,10.6c10.2,0,17.3-3.6,17.3-10.4c0-8.6-9.6-10.8-23.1-15.7
		c-14.9-5.2-32.1-12.2-32.1-31.5c0-21.5,21.5-29.1,40-29.1c14.7,0,36.6,5.8,36.6,21.1v12.9h-21.7v-5.8c0-5.2-6-8.4-14.9-8.4
		c-8,0-14.7,2.8-14.7,9.2c0,8.4,10,11.8,21.3,15.1c15.5,5,33.9,11.4,33.9,31.3c0,20.5-19.5,30.9-42.8,30.9c-18.5,0-41.2-8-41.2-24.5
		V297.2z"/>
	<path fill="#ED1C2E" d="M104.6,196.5c0-11.5,9.3-20.8,20.8-20.8s20.8,9.3,20.8,20.8c0,11.5-9.3,20.8-20.8,20.8
		S104.6,208,104.6,196.5L104.6,196.5z"/>
	<path fill="#FFFFFF" d="M119.1,331.1H78.7v-18.9h14.5V290c0-19.1-25.9-40.9-46.4-40.9c-3.6,0-7.5,0.4-7.5,0.4v-21
		c0,0,3.5-0.4,5.9-0.4c15.5,0,44.4,11.6,49,26.1h0.4c0,0-0.4-2.6-0.4-6.4v-6c0-8.6,4.6-12.3,13.5-12.3h11.3L119.1,331.1L119.1,331.1
		z"/>
</g>
</svg>
